# xmcd
# Copyright (C) 1995-1998 Ti Kan
#
# Track frame offsets:
#       150
#       13723
#       27664
#       43227
#       58761
#       69481
#       83472
#       93010
#       107191
#       121274
#       134249
#       147664
#       166913
#       183314
#
# Disc length: 2698 seconds
#
# Revision: 0
# Processed by: cddbd v1.5.1PL0 Copyright (c) Steve Scherf et al.
# Submitted via: CD-Transfer v1.0
#
DISCID=c70a880e
DTITLE=Maes - E Lange Wäg
DYEAR=2004
DGENRE=
TTITLE0=Die Ganzi Wält
TTITLE1=Friede
TTITLE2=Dr Tisch
TTITLE3=E Lange Wäg
TTITLE4=Nachtliechter
TTITLE5=Sunneschiin
TTITLE6=Rar Gmacht
TTITLE7=Immer Im Herbscht
TTITLE8=Ingle
TTITLE9=Nachtliechter Iii
TTITLE10=Johrmilliarde
TTITLE11=Spure Im Sand
TTITLE12=Wenn Du Wirklich Willsch
TTITLE13=Nachtliechter Iv
EXTD=
EXTT0=
EXTT1=
EXTT2=
EXTT3=
EXTT4=
EXTT5=
EXTT6=
EXTT7=
EXTT8=
EXTT9=
EXTT10=
EXTT11=
EXTT12=
EXTT13=
PLAYORDER=
